# xmcd
# Copyright (C) 1995-1998 Ti Kan
#
# Track frame offsets:
#       150
#       24040
#       40145
#       67475
#       93647
#       111677
#       146072
#       165182
#       184952
#       200872
#
# Disc length: 3045 seconds
#
# Revision: 0
# Processed by: cddbd v1.5.2PL0 Copyright (c) Steve Scherf et al.
# Submitted via: CD-Import v1.0
#
DISCID=970be30a
DTITLE=Church - Hollogram Of Baal
DYEAR=1998
DGENRE=
TTITLE0=Anaesthesia
TTITLE1=Ricochet
TTITLE2=Louisiana
TTITLE3=The Great Machine
TTITLE4=No Certainty Attached
TTITLE5=Tranquility
TTITLE6=Buffalo
TTITLE7=This Is It
TTITLE8=Another Earth
TTITLE9=Glow-Worm
EXTD=
EXTT0=
EXTT1=
EXTT2=
EXTT3=
EXTT4=
EXTT5=
EXTT6=
EXTT7=
EXTT8=
EXTT9=
PLAYORDER=
